<svg xmlns="http://www.w3.org/2000/svg" width="44" height="62"><g id="Page-1" stroke="none" stroke-width="1" fill="none" fill-rule="evenodd"><g id="Mobile-Portrait" transform="translate(-179 -19)"><g id="Booking-Details" transform="translate(180 20)"><path d="M4.45 0A4.455 4.455 0 000 4.46v51.08C0 58.002 1.98 60 4.439 60h33.345c2.45 0 4.438-1.996 4.438-4.424V15.556L28.89 0H4.45zM29.89 1.504V12.12c0 1.317 1.065 2.385 2.356 2.385H41L29.889 1.504h0z" id="document-list" stroke="#F34F4F" stroke-width="1.5" fill-rule="nonzero"/><path d="M5.778 29.194c0 .415.333.75.752.75h34.496a.749.749 0 100-1.5H6.53a.75.75 0 00-.752.75z" id="document-list-path" fill="#F34F4F"/><path d="M5.778 39.194c0 .415.333.75.752.75h34.496a.749.749 0 100-1.5H6.53a.75.75 0 00-.752.75zM5.778 49.194c0 .415.333.75.752.75h34.496a.749.749 0 100-1.5H6.53a.75.75 0 00-.752.75zM5.778 19.083c0 .415.339.75.741.75h16.295a.75.75 0 000-1.5H6.52a.744.744 0 00-.741.75zM5.778 8.972c0 .414.339.75.741.75h16.295a.75.75 0 000-1.5H6.52a.744.744 0 00-.741.75z" fill="#F34F4F"/></g></g></g><script/></svg>