<svg xmlns="http://www.w3.org/2000/svg" width="20" height="20"><g id="Page-1" stroke="none" stroke-width="1" fill="none" fill-rule="evenodd"><g id="Dashboard" transform="translate(-753 -719)" fill-rule="nonzero"><g id="Group-3" transform="translate(0 1)"><g id="allnew" transform="translate(641 436)"><g id="Group-8" transform="translate(22 282)"><g id="Group-11" transform="translate(90)"><circle id="Oval" fill="#F34F4F" cx="10" cy="10" r="10"/><g id="Group" transform="translate(4 6)" fill="#FFF"><path d="M11.715 7.49L8.342 3.65l3.62-2.544c.007.05.01.1.01.155v5.475c0 .282-.096.545-.257.753zM7.128 4.096c-.667.471-1.578.44-2.211-.07l-.667-.535L.375.373c.234-.228.553-.37.911-.37h9.4c.53 0 .987.316 1.183.763L7.128 4.097zm.935-.248l3.418 3.879c-.22.168-.495.269-.794.269H1.289c-.227 0-.436-.058-.622-.158l3.493-3.99.537.433c.395.32.88.481 1.368.481.44 0 .884-.131 1.259-.397l.739-.517zM.392 7.644A1.248 1.248 0 010 6.739V1.264c0-.229.065-.44.172-.625L3.896 3.64.392 7.644z" id="Combined-Shape"/></g></g></g></g></g></g></g><script/></svg>