<svg xmlns="http://www.w3.org/2000/svg" xmlns:xlink="http://www.w3.org/1999/xlink" width="61" height="60"><defs><path id="path-1" d="M22 18h39v14H22z"/><mask id="mask-2" maskContentUnits="userSpaceOnUse" maskUnits="objectBoundingBox" x="0" y="0" width="39" height="14" fill="#fff"><use xlink:href="#path-1"/></mask></defs><g id="Page-1" stroke="none" stroke-width="1" fill="none" fill-rule="evenodd"><g id="Mobile-Portrait" transform="translate(-20 -20)"><g id="Modify-Booking" transform="translate(20 20)"><use id="Rectangle" stroke="#F34F4F" mask="url(#mask-2)" stroke-width="3" transform="rotate(-45 41.5 25)" xlink:href="#path-1"/><path id="Triangle" stroke="#F34F4F" stroke-width="1.5" d="M17.757 48.243L30.485 44 22 35.515z"/><path d="M60 51.994A7.997 7.997 0 0152.001 60H8A7.994 7.994 0 010 52.001V8A7.995 7.995 0 018.004 0h39.023c.895 0 .973.017.973.77s-.078.73-.973.73H8.501A6.996 6.996 0 001.5 8.504v42.992A6.997 6.997 0 008.504 58.5h42.992a7.006 7.006 0 007.004-7.008v-24.22c0-.752-.125-1.272.77-1.272s.73.52.73 1.273v24.721z" id="Shape" fill="#F34F4F" fill-rule="nonzero"/></g></g></g><script/></svg>