<svg xmlns="http://www.w3.org/2000/svg" version="1.1" id="Layer_1" x="0" y="0" viewBox="0 0 62 62" xml:space="preserve"><style>.st1{fill:#f35454}</style><g id="Page-1"><g id="Dashboard-Text-Links" transform="translate(-1025 -192)"><g id="Group-10" transform="translate(957 169)"><g id="refundable" transform="translate(44)"><g id="_x60_" transform="translate(44.667 41.667)"><path d="M18.8.3s.3 0 .3.3v1.7s0 .3-.3.3h-6.7c-.3 0-.3.4.3 1.8l.5 2.1h6s.3 0 .3.3v1.7s0 .3-.3.3h-6c0 2-.8 3.6-2.5 5.6-2 1.1-3 1.7-3.9 1.7h-.3l7.5 10.6v.3h-3.6S8.5 24.2.9 14.4H2c4.2 0 6.5-1.4 7.3-4.5V8.7h-9s-.3 0-.3-.3V6.8s0-.3.3-.3h9c0-1.1.2-2.3-.9-3.1s-3.6-.8-4.8-.8H.3s-.3 0-.3-.3l.8-2h18z" fill="#f34f4f" id="Shape"/></g><g id="Group-6" transform="scale(-1 1) rotate(70 -14.997 -21.289)"><g id="Oval-23" transform="translate(.296)"><path class="st1" d="M70.1 52.2c4.2-11.6 1-25.2-9-33.5-12.8-10.7-31.9-9-42.6 3.7C7.8 35.1 9.4 54.3 22.2 65l1-1.1C11 53.6 9.4 35.5 19.6 23.3 29.8 11.2 48 9.6 60.1 19.8 72.3 30 73.9 48.1 63.7 60.3l1.1 1c2.4-2.8 4.1-5.9 5.3-9.1z" id="Oval-3"/><path class="st1" d="M70.1 52.1c2.2-6.1 2.5-13 .3-19.7C65.3 16.6 48.2 7.9 32.3 13c-7.7 2.5-13.9 7.8-17.6 15-3.7 7.2-4.3 15.4-1.8 23.1l1.4-.5c-2.4-7.3-1.8-15.1 1.7-21.9 3.5-6.8 9.4-11.9 16.7-14.3C47.9 9.6 64.1 17.8 69 32.9c4.9 15.1-3.4 31.3-18.5 36.2l.5 1.4c9.2-2.9 16-9.9 19.1-18.4z" id="Oval-3_1_"/></g><path class="st1" d="M2.2 9.3s-2.8 2.6.9 3l10.3 2c.5.1 1.1-.2 1.2-.8v-.4L12.1 1.8c-.1-.5-.6-.8-1.2-.7-.2 0-.4.1-.5.3C7.7 4 4.9 6.6 2.2 9.3z" transform="translate(12 52.26)" id="Shape_1_"/></g></g></g></g></g><script/></svg>