<svg xmlns="http://www.w3.org/2000/svg" width="61" height="61"><g id="Page-1" stroke="none" stroke-width="1" fill="none" fill-rule="evenodd"><g id="Mobile-Portrait" transform="translate(-99 -19)"><g id="Ticket-Voucher" transform="translate(100 20)"><path d="M58.045 20.33l-3.495-3.517c-1.408-1.417-3.575-.261-3.575-.261a6.213 6.213 0 01-6.797-1.352 6.239 6.239 0 01-1.316-6.822c.836-2.221-.326-3.642-.668-4L38.683.84c-1.536-1.544-3.2-.14-3.608.252L1.099 35.007c-2.107 2.1-.37 3.778-.37 3.778l4.068 4.096s1.004 1.088 2.95.3c2.48-1.171 5.335-.786 7.252 1.142a6.238 6.238 0 011.334 6.78c.002 0-1.18 2.203.244 3.635l3.561 3.587c.255.25 2.126 1.937 4.464-.395l33.732-33.668c.572-.663 1.457-2.173-.289-3.931z" id="Shape" stroke="#F34F4F" stroke-width="1.5" fill-rule="nonzero"/><g id="Group" transform="translate(12.787 26.557)" fill="#F34F4F"><circle id="Oval" cx="1.967" cy="1.967" r="1.967"/><circle cx="5.902" cy="5.902" r="1.967"/><circle cx="9.836" cy="9.836" r="1.967"/><circle cx="13.77" cy="13.77" r="1.967"/><circle cx="17.705" cy="17.705" r="1.967"/></g></g></g></g><script/></svg>