<svg xmlns="http://www.w3.org/2000/svg" width="20" height="20"><g id="Page-1" stroke="none" stroke-width="1" fill="none" fill-rule="evenodd"><g id="Dashboard" transform="translate(-693 -719)" fill-rule="nonzero"><g id="Group-3" transform="translate(0 1)"><g id="allnew" transform="translate(641 436)"><g id="Group-8" transform="translate(22 282)"><g id="twitter-(1)" transform="translate(30)"><circle id="Oval" fill="#55ACEE" cx="9.929" cy="9.929" r="9.929"/><path d="M16.01 7.136a4.735 4.735 0 01-1.362.373 2.38 2.38 0 001.043-1.313c-.458.272-.966.47-1.507.576a2.374 2.374 0 00-4.044 2.165 6.737 6.737 0 01-4.892-2.48 2.373 2.373 0 00.734 3.169 2.357 2.357 0 01-1.074-.298v.03c0 1.15.818 2.11 1.903 2.327a2.365 2.365 0 01-1.071.041 2.376 2.376 0 002.217 1.649 4.762 4.762 0 01-3.514.982 6.713 6.713 0 003.638 1.067c4.365 0 6.752-3.617 6.752-6.753 0-.103-.002-.206-.007-.307a4.813 4.813 0 001.185-1.228z" id="Shape" fill="#F1F2F2"/></g></g></g></g></g></g><script/></svg>