<svg xmlns="http://www.w3.org/2000/svg" width="20" height="20"><g id="Page-1" stroke="none" stroke-width="1" fill="none" fill-rule="evenodd"><g id="Dashboard" transform="translate(-723 -719)" fill-rule="nonzero"><g id="Group-3" transform="translate(0 1)"><g id="allnew" transform="translate(641 436)"><g id="Group-8" transform="translate(22 282)"><g id="whatsapp-(1)" transform="translate(60)"><circle id="Oval" fill="#75B73B" cx="10" cy="10" r="10"/><g id="Group" transform="translate(4.258 4.219)" fill="#FFF"><path d="M5.462.017C2.414.162.01 2.701.018 5.752c.003.93.227 1.807.623 2.582l-.607 2.95c-.033.16.11.3.27.262l2.89-.685c.742.37 1.576.583 2.46.597 3.114.048 5.712-2.426 5.81-5.54a5.724 5.724 0 00-6.002-5.9zm3.45 8.887a4.453 4.453 0 01-3.17 1.312c-.7 0-1.372-.157-1.995-.467l-.402-.2-1.772.42.373-1.812-.198-.388a4.431 4.431 0 01-.488-2.034c0-1.198.467-2.323 1.313-3.17a4.49 4.49 0 013.17-1.312c1.196 0 2.322.466 3.168 1.312a4.453 4.453 0 011.313 3.17A4.49 4.49 0 018.91 8.903z" id="Shape"/><path d="M8.52 6.976l-1.109-.318a.413.413 0 00-.409.107l-.27.277a.404.404 0 01-.44.092c-.524-.212-1.628-1.193-1.91-1.684a.404.404 0 01.033-.447l.236-.307a.413.413 0 00.051-.42l-.466-1.054a.413.413 0 00-.646-.148c-.31.262-.676.66-.72 1.1-.08.777.254 1.756 1.513 2.932C5.84 8.464 7.004 8.644 7.763 8.46c.43-.104.775-.522.991-.865a.414.414 0 00-.234-.62z"/></g><path d="M9.61.028l-.869.89a4.452 4.452 0 011.444 3.294A4.49 4.49 0 018.872 7.38a4.453 4.453 0 01-3.169 1.313c-.7 0-1.372-.157-1.995-.467l-.402-.2-1.772.419.036-.178L.001 9.875a.223.223 0 00.263.147l2.89-.685c.743.37 1.577.584 2.46.597 3.115.048 5.713-2.426 5.81-5.54A5.71 5.71 0 009.61.028z" transform="translate(4.297 5.742)"/><path d="M8.481 5.452l-1.109-.318a.413.413 0 00-.409.108l-.27.276a.404.404 0 01-.44.093c-.303-.123-.799-.502-1.218-.895l-.77.79.08.076C5.8 6.941 6.964 7.12 7.724 6.936c.43-.104.774-.522.99-.864a.414.414 0 00-.234-.62z" transform="translate(4.297 5.742)"/></g></g></g></g></g></g><script/></svg>